# xmcd CD database file
#
# Track frame offsets:
#	150
#	16974
#	39652
#	66508
#	86338
#	106753
#	127560
#	146630
#	167425
#	182243
#
# Disc length: 2697 seconds
#
# Revision: 0
# Processed by: cddbd v1.5.1PL0 Copyright (c) Steve Scherf et al.
# Submitted via: CDex 1.51
#
DISCID=790a870a
DTITLE=LOVE ME BUTCH - THIS IS THE NEW POP
DYEAR=2005
DGENRE=Rock
TTITLE0=Reconcile
TTITLE1=Stumble Upon a Glass
TTITLE2=Barricade
TTITLE3=Dream of my Own
TTITLE4=Fortress of a Million
TTITLE5=Pitcher of a Ghost
TTITLE6=Hollywood Holiday
TTITLE7=Embrace Yourselves
TTITLE8=Bliss
TTITLE9=Living in Disguise
EXTD=YEAR: 2005
EXTT0=
EXTT1=
EXTT2=
EXTT3=
EXTT4=
EXTT5=
EXTT6=
EXTT7=
EXTT8=
EXTT9=
PLAYORDER=
